<?xml version="1.0" standalone="no"?>
<!DOCTYPE svg PUBLIC "-//W3C//DTD SVG 20010904//EN"
 "http://www.w3.org/TR/2001/REC-SVG-20010904/DTD/svg10.dtd">
<svg version="1.0" xmlns="http://www.w3.org/2000/svg"
 width="500.000000pt" height="500.000000pt" viewBox="0 0 500.000000 500.000000"
 preserveAspectRatio="xMidYMid meet">

<g transform="translate(0.000000,500.000000) scale(0.100000,-0.100000)"
fill="#000000" stroke="none">
<path d="M4395 3794 c-16 -8 -38 -22 -47 -31 -9 -8 -21 -12 -27 -9 -5 4 -41
10 -80 15 -80 10 -197 0 -274 -25 l-53 -16 -38 26 c-23 15 -53 26 -72 26 -30
0 -34 -3 -40 -35 -9 -47 2 -101 32 -154 13 -24 24 -58 24 -75 0 -41 -45 -109
-68 -102 -220 67 -325 80 -617 81 -280 0 -363 -9 -515 -58 -41 -14 -105 -34
-143 -46 -124 -40 -243 -103 -479 -257 -73 -48 -156 -82 -262 -109 -187 -48
-451 -255 -771 -605 -153 -167 -228 -231 -337 -286 -87 -44 -101 -85 -43 -127
52 -37 137 -49 329 -45 190 4 237 14 351 71 94 46 378 290 598 512 l169 170
-5 -75 c-3 -41 -18 -113 -32 -160 -35 -113 -32 -189 11 -280 35 -75 82 -133
128 -158 40 -22 211 -21 313 2 70 15 125 12 196 -10 16 -5 17 -3 8 14 -16 31
-14 34 14 16 29 -19 32 -8 7 21 -33 40 -53 48 -133 55 -55 5 -86 12 -97 24
-16 16 -15 19 22 49 22 18 89 75 148 128 154 136 178 147 500 210 242 47 271
51 308 40 67 -20 98 -56 115 -133 8 -38 21 -96 29 -130 26 -116 117 -288 166
-313 25 -13 33 -13 73 2 40 15 51 15 87 3 35 -12 45 -12 68 1 18 9 58 14 115
14 48 0 87 2 87 6 0 8 -63 66 -86 77 -11 6 -44 14 -72 18 l-52 7 0 79 c0 119
37 241 105 348 13 19 31 60 40 90 10 30 36 80 59 110 78 103 140 207 197 327
74 160 95 229 105 363 3 47 15 109 25 138 33 93 21 194 -25 206 -28 8 -27 8
-61 -10z m-212 -368 c3 -7 -7 -25 -22 -40 l-27 -26 -28 29 c-26 27 -27 30 -9
40 26 15 80 14 86 -3z"/>
<path d="M540 1853 c-1 -5 -1 -154 -1 -333 l0 -325 61 -3 60 -3 0 226 c0 124
3 225 8 225 4 -1 47 -52 96 -115 49 -63 92 -115 96 -115 5 0 10 6 13 13 2 7
42 60 88 117 l84 105 3 -227 2 -228 65 0 65 0 0 335 0 335 -63 0 -63 0 -98
-130 c-54 -71 -100 -130 -101 -130 -2 0 -21 24 -42 53 -21 29 -65 87 -98 130
l-59 77 -58 0 c-32 0 -58 -3 -58 -7z"/>
<path d="M1497 1843 c-3 -10 -33 -90 -67 -178 -34 -88 -65 -171 -70 -185 -5
-14 -31 -85 -58 -158 l-49 -133 70 3 70 3 20 58 19 58 141 -3 140 -3 20 -57
19 -58 69 0 c38 0 69 3 69 7 0 4 -55 155 -122 335 l-123 328 -71 0 c-60 0 -73
-3 -77 -17z m123 -281 c23 -68 39 -126 36 -129 -7 -7 -165 -7 -172 -1 -2 3 11
49 30 104 43 125 56 158 60 153 2 -2 23 -59 46 -127z"/>
<path d="M1970 1526 l0 -336 65 0 64 0 3 128 3 127 65 3 65 3 65 -130 65 -130
78 -1 79 0 -48 88 c-94 170 -100 184 -86 189 32 12 79 65 91 101 8 23 12 67 9
105 -5 77 -35 124 -101 160 -38 20 -58 22 -229 25 l-188 4 0 -336z m351 200
c20 -8 39 -48 39 -80 0 -13 -9 -35 -21 -50 -20 -25 -24 -26 -130 -26 l-109 0
0 78 c0 43 3 82 7 85 8 9 192 2 214 -7z"/>
<path d="M2610 1526 l0 -336 133 0 c212 0 283 20 364 100 128 128 117 376 -23
493 -65 55 -124 69 -306 75 l-168 5 0 -337z m350 182 c78 -39 115 -143 90
-249 -25 -102 -116 -155 -252 -147 l-53 3 -3 200 c-1 110 0 205 2 212 9 22
161 8 216 -19z"/>
<path d="M3310 1525 l0 -335 240 0 240 0 0 60 0 60 -170 0 -170 0 0 80 0 80
165 0 165 0 0 60 0 60 -165 0 -165 0 0 74 0 75 28 -1 c15 0 91 0 170 1 l142 1
0 60 0 60 -240 0 -240 0 0 -335z"/>
<path d="M3920 1848 c0 -7 0 -157 -1 -333 l-1 -320 66 -3 66 -3 0 131 0 131
68 -3 67 -3 63 -127 63 -128 74 0 c41 0 75 3 75 6 0 7 -72 143 -117 220 l-24
42 35 21 c58 36 80 83 81 172 0 66 -3 81 -28 117 -50 76 -84 86 -299 90 -153
3 -188 1 -188 -10z m348 -127 c47 -25 52 -106 9 -136 -16 -11 -49 -15 -124
-15 l-103 0 0 78 c0 43 3 82 6 85 12 11 188 1 212 -12z"/>
</g>
</svg>
